<svg xmlns="http://www.w3.org/2000/svg" viewBox="0 0 64 64">
  <rect width="64" height="64" rx="12" fill="#000"/>
  <path d="M18 44L26 20H30L38 44H34L32.2 38.8H23.8L22 44H18ZM24.8 35.6H31.2L28 25.2L24.8 35.6Z" fill="#FF4D00"/>
  <path d="M42 20H48C50.4 20 52.4 20.8 54 22.4C55.6 24 56.4 26 56.4 28.4V35.6C56.4 38 55.6 40 54 41.6C52.4 43.2 50.4 44 48 44H42V20ZM46 40H48C49.6 40 50.8 39.5 51.6 38.5C52.4 37.5 52.8 36.3 52.8 34.8V29.2C52.8 27.7 52.4 26.5 51.6 25.5C50.8 24.5 49.6 24 48 24H46V40Z" fill="#FFF"/>
</svg>
